<svg width="16" height="16" viewBox="0 0 16 16" fill="none" xmlns="http://www.w3.org/2000/svg">
<g clip-path="url(#clip0_211_1745)">
<path d="M0 0H13.3333C14.8061 0 16 1.19391 16 2.66667C16 4.13943 14.8061 5.33333 13.3333 5.33333H4C1.79086 5.33333 0 3.54247 0 1.33333V0Z" fill="#C1BDFE"/>
<path d="M0 5.33337H9.77778C11.2505 5.33337 12.4444 6.52728 12.4444 8.00004C12.4444 9.4728 11.2505 10.6667 9.77778 10.6667H4C1.79086 10.6667 0 8.87585 0 6.66671V5.33337Z" fill="#5649FF"/>
<path d="M0 10.6666H3.11111C4.58387 10.6666 5.77778 11.8605 5.77778 13.3333C5.77778 14.8061 4.58387 16 3.11111 16H2.88889C1.2934 16 0 14.7066 0 13.1111V10.6666Z" fill="#292935"/>
</g>
<defs>
<clipPath id="clip0_211_1745">
<rect width="16" height="16" fill="white"/>
</clipPath>
</defs>
</svg>
