<svg width="146" height="12" viewBox="0 0 146 12" fill="none" xmlns="http://www.w3.org/2000/svg">
<path d="M0 8.88006V0.240058H3.414C3.498 0.240058 3.598 0.244059 3.714 0.252059C3.83 0.256059 3.942 0.268059 4.05 0.288059C4.518 0.360059 4.91 0.520059 5.226 0.768058C5.546 1.01606 5.786 1.33006 5.946 1.71006C6.106 2.08606 6.186 2.50406 6.186 2.96406C6.186 3.42006 6.104 3.83806 5.94 4.21806C5.78 4.59406 5.54 4.90806 5.22 5.16006C4.904 5.40806 4.514 5.56806 4.05 5.64006C3.942 5.65606 3.83 5.66806 3.714 5.67606C3.598 5.68406 3.498 5.68806 3.414 5.68806H1.068V8.88006H0ZM1.068 4.67406H3.378C3.454 4.67406 3.54 4.67006 3.636 4.66206C3.736 4.65406 3.83 4.64006 3.918 4.62006C4.194 4.55606 4.418 4.44006 4.59 4.27206C4.766 4.10006 4.894 3.90006 4.974 3.67206C5.054 3.44006 5.094 3.20406 5.094 2.96406C5.094 2.72406 5.054 2.49006 4.974 2.26206C4.894 2.03006 4.766 1.82806 4.59 1.65606C4.418 1.48406 4.194 1.36806 3.918 1.30806C3.83 1.28406 3.736 1.27006 3.636 1.26606C3.54 1.25806 3.454 1.25406 3.378 1.25406H1.068V4.67406Z" fill="#676767"/>
<path d="M10.1322 9.06006C9.49622 9.06006 8.94022 8.92006 8.46422 8.64006C7.99222 8.35606 7.62422 7.96206 7.36022 7.45806C7.09622 6.95006 6.96422 6.35806 6.96422 5.68206C6.96422 4.97406 7.09422 4.36206 7.35422 3.84606C7.61422 3.32606 7.97622 2.92606 8.44022 2.64606C8.90822 2.36206 9.45622 2.22006 10.0842 2.22006C10.7362 2.22006 11.2902 2.37006 11.7462 2.67006C12.2062 2.97006 12.5502 3.39806 12.7782 3.95406C13.0102 4.51006 13.1102 5.17206 13.0782 5.94006H11.9982V5.55606C11.9862 4.76006 11.8242 4.16606 11.5122 3.77406C11.2002 3.37806 10.7362 3.18006 10.1202 3.18006C9.46022 3.18006 8.95822 3.39206 8.61422 3.81606C8.27022 4.24006 8.09822 4.84806 8.09822 5.64006C8.09822 6.40406 8.27022 6.99606 8.61422 7.41606C8.95822 7.83606 9.44822 8.04606 10.0842 8.04606C10.5122 8.04606 10.8842 7.94806 11.2002 7.75206C11.5162 7.55606 11.7642 7.27406 11.9442 6.90606L12.9702 7.26006C12.7182 7.83206 12.3382 8.27606 11.8302 8.59206C11.3262 8.90406 10.7602 9.06006 10.1322 9.06006ZM7.73822 5.94006V5.08206H12.5262V5.94006H7.73822Z" fill="#676767"/>
<path d="M14.4141 8.88006V2.40006H15.3681V3.96606L15.2121 3.76206C15.2881 3.56206 15.3861 3.37806 15.5061 3.21006C15.6301 3.04206 15.7681 2.90406 15.9201 2.79606C16.0881 2.66006 16.2781 2.55606 16.4901 2.48406C16.7021 2.41206 16.9181 2.37006 17.1381 2.35806C17.3581 2.34206 17.5641 2.35606 17.7561 2.40006V3.40206C17.5321 3.34206 17.2861 3.32606 17.0181 3.35406C16.7501 3.38206 16.5021 3.48006 16.2741 3.64806C16.0661 3.79606 15.9041 3.97606 15.7881 4.18806C15.6761 4.40006 15.5981 4.63006 15.5541 4.87806C15.5101 5.12206 15.4881 5.37206 15.4881 5.62806V8.88006H14.4141Z" fill="#676767"/>
<path d="M21.1042 9.05406C20.3322 9.05406 19.6982 8.88606 19.2022 8.55006C18.7102 8.21006 18.4082 7.73606 18.2962 7.12806L19.3883 6.95406C19.4763 7.30606 19.6782 7.58606 19.9942 7.79406C20.3102 7.99806 20.7023 8.10006 21.1702 8.10006C21.6142 8.10006 21.9623 8.00806 22.2143 7.82406C22.4663 7.64006 22.5923 7.39006 22.5923 7.07406C22.5923 6.89006 22.5502 6.74206 22.4662 6.63006C22.3822 6.51406 22.2083 6.40606 21.9443 6.30606C21.6843 6.20606 21.2903 6.08606 20.7623 5.94606C20.1903 5.79406 19.7403 5.63606 19.4123 5.47206C19.0843 5.30806 18.8502 5.11806 18.7102 4.90206C18.5702 4.68606 18.5002 4.42406 18.5002 4.11606C18.5002 3.73606 18.6043 3.40406 18.8123 3.12006C19.0203 2.83206 19.3102 2.61006 19.6822 2.45406C20.0582 2.29806 20.4942 2.22006 20.9902 2.22006C21.4822 2.22006 21.9222 2.29806 22.3102 2.45406C22.6982 2.61006 23.0103 2.83206 23.2463 3.12006C23.4863 3.40406 23.6283 3.73606 23.6723 4.11606L22.5802 4.31406C22.5282 3.96606 22.3602 3.69206 22.0763 3.49206C21.7963 3.29206 21.4342 3.18606 20.9902 3.17406C20.5702 3.15806 20.2283 3.23206 19.9643 3.39606C19.7043 3.56006 19.5742 3.78206 19.5742 4.06206C19.5742 4.21806 19.6223 4.35206 19.7183 4.46406C19.8183 4.57606 20.0002 4.68206 20.2642 4.78206C20.5322 4.88206 20.9202 4.99606 21.4282 5.12406C22.0002 5.26806 22.4502 5.42606 22.7782 5.59806C23.1102 5.76606 23.3462 5.96606 23.4862 6.19806C23.6262 6.42606 23.6963 6.70806 23.6963 7.04406C23.6963 7.66806 23.4663 8.16006 23.0063 8.52006C22.5463 8.87606 21.9123 9.05406 21.1042 9.05406Z" fill="#676767"/>
<path d="M27.7795 9.06006C27.1355 9.06006 26.5795 8.91406 26.1115 8.62206C25.6475 8.33006 25.2895 7.92606 25.0375 7.41006C24.7855 6.89406 24.6595 6.30206 24.6595 5.63406C24.6595 4.95406 24.7875 4.35806 25.0435 3.84606C25.2995 3.33406 25.6615 2.93606 26.1295 2.65206C26.5975 2.36406 27.1475 2.22006 27.7795 2.22006C28.4275 2.22006 28.9855 2.36606 29.4535 2.65806C29.9215 2.94606 30.2795 3.34806 30.5275 3.86406C30.7795 4.37606 30.9055 4.96606 30.9055 5.63406C30.9055 6.31006 30.7795 6.90606 30.5275 7.42206C30.2755 7.93406 29.9155 8.33606 29.4475 8.62806C28.9795 8.91606 28.4235 9.06006 27.7795 9.06006ZM27.7795 8.04606C28.4515 8.04606 28.9515 7.82206 29.2795 7.37406C29.6075 6.92606 29.7715 6.34606 29.7715 5.63406C29.7715 4.90206 29.6055 4.32006 29.2735 3.88806C28.9415 3.45206 28.4435 3.23406 27.7795 3.23406C27.3275 3.23406 26.9555 3.33606 26.6635 3.54006C26.3715 3.74406 26.1535 4.02606 26.0095 4.38606C25.8655 4.74606 25.7935 5.16206 25.7935 5.63406C25.7935 6.36206 25.9615 6.94606 26.2975 7.38606C26.6335 7.82606 27.1275 8.04606 27.7795 8.04606Z" fill="#676767"/>
<path d="M36.8406 8.88006V5.63406C36.8406 5.32606 36.8126 5.03006 36.7566 4.74606C36.7046 4.46206 36.6106 4.20806 36.4746 3.98406C36.3426 3.75606 36.1626 3.57606 35.9346 3.44406C35.7106 3.31206 35.4266 3.24606 35.0826 3.24606C34.8146 3.24606 34.5706 3.29206 34.3506 3.38406C34.1346 3.47206 33.9486 3.60806 33.7926 3.79206C33.6366 3.97606 33.5146 4.20806 33.4266 4.48806C33.3426 4.76406 33.3006 5.09006 33.3006 5.46606L32.5986 5.25006C32.5986 4.62206 32.7106 4.08406 32.9346 3.63606C33.1626 3.18406 33.4806 2.83806 33.8886 2.59806C34.3006 2.35406 34.7846 2.23206 35.3406 2.23206C35.7606 2.23206 36.1186 2.29806 36.4146 2.43006C36.7106 2.56206 36.9566 2.73806 37.1526 2.95806C37.3486 3.17406 37.5026 3.41806 37.6146 3.69006C37.7266 3.95806 37.8046 4.23206 37.8486 4.51206C37.8966 4.78806 37.9206 5.05006 37.9206 5.29806V8.88006H36.8406ZM32.2206 8.88006V2.40006H33.1806V4.13406H33.3006V8.88006H32.2206Z" fill="#676767"/>
<path d="M41.3225 9.06006C40.8385 9.06006 40.4325 8.97206 40.1045 8.79606C39.7805 8.61606 39.5345 8.38006 39.3665 8.08806C39.2025 7.79606 39.1205 7.47606 39.1205 7.12806C39.1205 6.78806 39.1845 6.49406 39.3125 6.24606C39.4445 5.99406 39.6285 5.78606 39.8645 5.62206C40.1005 5.45406 40.3825 5.32206 40.7105 5.22606C41.0185 5.14206 41.3625 5.07006 41.7425 5.01006C42.1265 4.94606 42.5145 4.88806 42.9065 4.83606C43.2985 4.78406 43.6645 4.73406 44.0045 4.68606L43.6205 4.90806C43.6325 4.33206 43.5165 3.90606 43.2725 3.63006C43.0325 3.35406 42.6165 3.21606 42.0245 3.21606C41.6325 3.21606 41.2885 3.30606 40.9925 3.48606C40.7005 3.66206 40.4945 3.95006 40.3745 4.35006L39.3605 4.04406C39.5165 3.47606 39.8185 3.03006 40.2665 2.70606C40.7145 2.38206 41.3045 2.22006 42.0365 2.22006C42.6245 2.22006 43.1285 2.32606 43.5485 2.53806C43.9725 2.74606 44.2765 3.06206 44.4605 3.48606C44.5525 3.68606 44.6105 3.90406 44.6345 4.14006C44.6585 4.37206 44.6705 4.61606 44.6705 4.87206V8.88006H43.7225V7.32606L43.9445 7.47006C43.7005 7.99406 43.3585 8.39006 42.9185 8.65806C42.4825 8.92606 41.9505 9.06006 41.3225 9.06006ZM41.4845 8.16606C41.8685 8.16606 42.2005 8.09806 42.4805 7.96206C42.7645 7.82206 42.9925 7.64006 43.1645 7.41606C43.3365 7.18806 43.4485 6.94006 43.5005 6.67206C43.5605 6.47206 43.5925 6.25006 43.5965 6.00606C43.6045 5.75806 43.6085 5.56806 43.6085 5.43606L43.9805 5.59806C43.6325 5.64606 43.2905 5.69206 42.9545 5.73606C42.6185 5.78006 42.3005 5.82806 42.0005 5.88006C41.7005 5.92806 41.4305 5.98606 41.1905 6.05406C41.0145 6.11006 40.8485 6.18206 40.6925 6.27006C40.5405 6.35806 40.4165 6.47206 40.3205 6.61206C40.2285 6.74806 40.1825 6.91806 40.1825 7.12206C40.1825 7.29806 40.2265 7.46606 40.3145 7.62606C40.4065 7.78606 40.5465 7.91606 40.7345 8.01606C40.9265 8.11606 41.1765 8.16606 41.4845 8.16606Z" fill="#676767"/>
<path d="M46.3505 8.88006V0.0600586H47.4185V8.88006H46.3505Z" fill="#676767"/>
<path d="M52.2391 8.88006V2.04606C52.2391 1.87806 52.2471 1.70806 52.2631 1.53606C52.2791 1.36006 52.3151 1.19006 52.3711 1.02606C52.4271 0.858058 52.5191 0.704059 52.6471 0.564059C52.7951 0.400059 52.9571 0.284059 53.1331 0.216058C53.3091 0.144059 53.4871 0.100059 53.6671 0.0840583C53.8511 0.0680585 54.0251 0.0600586 54.1891 0.0600586H55.0111V0.948059H54.2491C53.9331 0.948059 53.6971 1.02606 53.5411 1.18206C53.3851 1.33406 53.3071 1.56606 53.3071 1.87806V8.88006H52.2391ZM51.1411 3.28206V2.40006H55.0111V3.28206H51.1411ZM56.2711 1.25406V0.150058H57.3391V1.25406H56.2711ZM56.2711 8.88006V2.40006H57.3391V8.88006H56.2711Z" fill="#676767"/>
<path d="M63.7585 8.88006V5.63406C63.7585 5.32606 63.7305 5.03006 63.6745 4.74606C63.6225 4.46206 63.5285 4.20806 63.3925 3.98406C63.2605 3.75606 63.0805 3.57606 62.8525 3.44406C62.6285 3.31206 62.3445 3.24606 62.0005 3.24606C61.7325 3.24606 61.4885 3.29206 61.2685 3.38406C61.0525 3.47206 60.8665 3.60806 60.7105 3.79206C60.5545 3.97606 60.4325 4.20806 60.3445 4.48806C60.2605 4.76406 60.2185 5.09006 60.2185 5.46606L59.5165 5.25006C59.5165 4.62206 59.6285 4.08406 59.8525 3.63606C60.0805 3.18406 60.3985 2.83806 60.8065 2.59806C61.2185 2.35406 61.7025 2.23206 62.2585 2.23206C62.6785 2.23206 63.0365 2.29806 63.3325 2.43006C63.6285 2.56206 63.8745 2.73806 64.0705 2.95806C64.2665 3.17406 64.4205 3.41806 64.5325 3.69006C64.6445 3.95806 64.7225 4.23206 64.7665 4.51206C64.8145 4.78806 64.8385 5.05006 64.8385 5.29806V8.88006H63.7585ZM59.1385 8.88006V2.40006H60.0985V4.13406H60.2185V8.88006H59.1385Z" fill="#676767"/>
<path d="M68.2404 9.06006C67.7564 9.06006 67.3504 8.97206 67.0224 8.79606C66.6984 8.61606 66.4524 8.38006 66.2844 8.08806C66.1204 7.79606 66.0384 7.47606 66.0384 7.12806C66.0384 6.78806 66.1024 6.49406 66.2304 6.24606C66.3624 5.99406 66.5464 5.78606 66.7824 5.62206C67.0184 5.45406 67.3004 5.32206 67.6284 5.22606C67.9364 5.14206 68.2804 5.07006 68.6604 5.01006C69.0444 4.94606 69.4324 4.88806 69.8244 4.83606C70.2164 4.78406 70.5824 4.73406 70.9224 4.68606L70.5384 4.90806C70.5504 4.33206 70.4344 3.90606 70.1904 3.63006C69.9504 3.35406 69.5344 3.21606 68.9424 3.21606C68.5504 3.21606 68.2064 3.30606 67.9104 3.48606C67.6184 3.66206 67.4124 3.95006 67.2924 4.35006L66.2784 4.04406C66.4344 3.47606 66.7364 3.03006 67.1844 2.70606C67.6324 2.38206 68.2224 2.22006 68.9544 2.22006C69.5424 2.22006 70.0464 2.32606 70.4664 2.53806C70.8904 2.74606 71.1944 3.06206 71.3784 3.48606C71.4704 3.68606 71.5284 3.90406 71.5524 4.14006C71.5764 4.37206 71.5884 4.61606 71.5884 4.87206V8.88006H70.6404V7.32606L70.8624 7.47006C70.6184 7.99406 70.2764 8.39006 69.8364 8.65806C69.4004 8.92606 68.8684 9.06006 68.2404 9.06006ZM68.4024 8.16606C68.7864 8.16606 69.1184 8.09806 69.3984 7.96206C69.6824 7.82206 69.9104 7.64006 70.0824 7.41606C70.2544 7.18806 70.3664 6.94006 70.4184 6.67206C70.4784 6.47206 70.5104 6.25006 70.5144 6.00606C70.5224 5.75806 70.5264 5.56806 70.5264 5.43606L70.8984 5.59806C70.5504 5.64606 70.2084 5.69206 69.8724 5.73606C69.5364 5.78006 69.2184 5.82806 68.9184 5.88006C68.6184 5.92806 68.3484 5.98606 68.1084 6.05406C67.9324 6.11006 67.7664 6.18206 67.6104 6.27006C67.4584 6.35806 67.3344 6.47206 67.2384 6.61206C67.1464 6.74806 67.1004 6.91806 67.1004 7.12206C67.1004 7.29806 67.1444 7.46606 67.2324 7.62606C67.3244 7.78606 67.4644 7.91606 67.6524 8.01606C67.8444 8.11606 68.0944 8.16606 68.4024 8.16606Z" fill="#676767"/>
<path d="M77.7624 8.88006V5.63406C77.7624 5.32606 77.7344 5.03006 77.6784 4.74606C77.6264 4.46206 77.5324 4.20806 77.3964 3.98406C77.2644 3.75606 77.0844 3.57606 76.8564 3.44406C76.6324 3.31206 76.3484 3.24606 76.0044 3.24606C75.7364 3.24606 75.4924 3.29206 75.2724 3.38406C75.0564 3.47206 74.8704 3.60806 74.7144 3.79206C74.5584 3.97606 74.4364 4.20806 74.3484 4.48806C74.2644 4.76406 74.2224 5.09006 74.2224 5.46606L73.5204 5.25006C73.5204 4.62206 73.6324 4.08406 73.8564 3.63606C74.0844 3.18406 74.4024 2.83806 74.8104 2.59806C75.2224 2.35406 75.7064 2.23206 76.2624 2.23206C76.6824 2.23206 77.0404 2.29806 77.3364 2.43006C77.6324 2.56206 77.8784 2.73806 78.0744 2.95806C78.2704 3.17406 78.4244 3.41806 78.5364 3.69006C78.6484 3.95806 78.7264 4.23206 78.7704 4.51206C78.8184 4.78806 78.8424 5.05006 78.8424 5.29806V8.88006H77.7624ZM73.1424 8.88006V2.40006H74.1024V4.13406H74.2224V8.88006H73.1424Z" fill="#676767"/>
<path d="M83.0738 9.06006C82.4178 9.06006 81.8598 8.91406 81.3998 8.62206C80.9438 8.32606 80.5958 7.92006 80.3558 7.40406C80.1158 6.88806 79.9918 6.30006 79.9838 5.64006C79.9918 4.96406 80.1178 4.37006 80.3618 3.85806C80.6098 3.34206 80.9638 2.94006 81.4238 2.65206C81.8838 2.36406 82.4378 2.22006 83.0858 2.22006C83.7698 2.22006 84.3578 2.38806 84.8498 2.72406C85.3458 3.06006 85.6778 3.52006 85.8458 4.10406L84.7898 4.42206C84.6538 4.04606 84.4318 3.75406 84.1238 3.54606C83.8198 3.33806 83.4698 3.23406 83.0738 3.23406C82.6298 3.23406 82.2638 3.33806 81.9758 3.54606C81.6878 3.75006 81.4738 4.03406 81.3338 4.39806C81.1938 4.75806 81.1218 5.17206 81.1178 5.64006C81.1258 6.36006 81.2918 6.94206 81.6158 7.38606C81.9438 7.82606 82.4298 8.04606 83.0738 8.04606C83.4978 8.04606 83.8498 7.95006 84.1298 7.75806C84.4098 7.56206 84.6218 7.28006 84.7658 6.91206L85.8458 7.19406C85.6218 7.79806 85.2718 8.26006 84.7958 8.58006C84.3198 8.90006 83.7458 9.06006 83.0738 9.06006Z" fill="#676767"/>
<path d="M89.7025 9.06006C89.0665 9.06006 88.5105 8.92006 88.0345 8.64006C87.5625 8.35606 87.1945 7.96206 86.9305 7.45806C86.6665 6.95006 86.5345 6.35806 86.5345 5.68206C86.5345 4.97406 86.6645 4.36206 86.9245 3.84606C87.1845 3.32606 87.5465 2.92606 88.0105 2.64606C88.4785 2.36206 89.0265 2.22006 89.6545 2.22006C90.3065 2.22006 90.8605 2.37006 91.3165 2.67006C91.7765 2.97006 92.1205 3.39806 92.3485 3.95406C92.5805 4.51006 92.6805 5.17206 92.6485 5.94006H91.5685V5.55606C91.5565 4.76006 91.3945 4.16606 91.0825 3.77406C90.7705 3.37806 90.3065 3.18006 89.6905 3.18006C89.0305 3.18006 88.5285 3.39206 88.1845 3.81606C87.8405 4.24006 87.6685 4.84806 87.6685 5.64006C87.6685 6.40406 87.8405 6.99606 88.1845 7.41606C88.5285 7.83606 89.0185 8.04606 89.6545 8.04606C90.0825 8.04606 90.4545 7.94806 90.7705 7.75206C91.0865 7.55606 91.3345 7.27406 91.5145 6.90606L92.5405 7.26006C92.2885 7.83206 91.9085 8.27606 91.4005 8.59206C90.8965 8.90406 90.3305 9.06006 89.7025 9.06006ZM87.3085 5.94006V5.08206H92.0965V5.94006H87.3085Z" fill="#676767"/>
<path d="M104.133 8.88006L104.139 4.73406C104.139 4.25006 104.009 3.87206 103.749 3.60006C103.493 3.32406 103.159 3.18606 102.747 3.18606C102.507 3.18606 102.279 3.24206 102.063 3.35406C101.847 3.46206 101.671 3.63406 101.535 3.87006C101.399 4.10206 101.331 4.40006 101.331 4.76406L100.767 4.53606C100.759 4.07606 100.853 3.67406 101.049 3.33006C101.249 2.98206 101.521 2.71206 101.865 2.52006C102.209 2.32806 102.597 2.23206 103.029 2.23206C103.705 2.23206 104.237 2.43806 104.625 2.85006C105.013 3.25806 105.207 3.80806 105.207 4.50006L105.201 8.88006H104.133ZM96.3807 8.88006V2.40006H97.3347V4.13406H97.4547V8.88006H96.3807ZM100.263 8.88006L100.269 4.77606C100.269 4.28006 100.141 3.89206 99.8847 3.61206C99.6287 3.32806 99.2887 3.18606 98.8647 3.18606C98.4447 3.18606 98.1047 3.33006 97.8447 3.61806C97.5847 3.90606 97.4547 4.28806 97.4547 4.76406L96.8907 4.42806C96.8907 4.00806 96.9907 3.63206 97.1907 3.30006C97.3907 2.96806 97.6627 2.70806 98.0067 2.52006C98.3507 2.32806 98.7407 2.23206 99.1767 2.23206C99.6127 2.23206 99.9927 2.32406 100.317 2.50806C100.641 2.69206 100.891 2.95606 101.067 3.30006C101.243 3.64006 101.331 4.04606 101.331 4.51806L101.325 8.88006H100.263Z" fill="#676767"/>
<path d="M108.612 9.06006C108.128 9.06006 107.722 8.97206 107.394 8.79606C107.07 8.61606 106.824 8.38006 106.656 8.08806C106.492 7.79606 106.41 7.47606 106.41 7.12806C106.41 6.78806 106.474 6.49406 106.602 6.24606C106.734 5.99406 106.918 5.78606 107.154 5.62206C107.39 5.45406 107.672 5.32206 108 5.22606C108.308 5.14206 108.652 5.07006 109.032 5.01006C109.416 4.94606 109.804 4.88806 110.196 4.83606C110.588 4.78406 110.954 4.73406 111.294 4.68606L110.91 4.90806C110.922 4.33206 110.806 3.90606 110.562 3.63006C110.322 3.35406 109.906 3.21606 109.314 3.21606C108.922 3.21606 108.578 3.30606 108.282 3.48606C107.99 3.66206 107.784 3.95006 107.664 4.35006L106.65 4.04406C106.806 3.47606 107.108 3.03006 107.556 2.70606C108.004 2.38206 108.594 2.22006 109.326 2.22006C109.914 2.22006 110.418 2.32606 110.838 2.53806C111.262 2.74606 111.566 3.06206 111.75 3.48606C111.842 3.68606 111.9 3.90406 111.924 4.14006C111.948 4.37206 111.96 4.61606 111.96 4.87206V8.88006H111.012V7.32606L111.234 7.47006C110.99 7.99406 110.648 8.39006 110.208 8.65806C109.772 8.92606 109.24 9.06006 108.612 9.06006ZM108.774 8.16606C109.158 8.16606 109.49 8.09806 109.77 7.96206C110.054 7.82206 110.282 7.64006 110.454 7.41606C110.626 7.18806 110.738 6.94006 110.79 6.67206C110.85 6.47206 110.882 6.25006 110.886 6.00606C110.894 5.75806 110.898 5.56806 110.898 5.43606L111.27 5.59806C110.922 5.64606 110.58 5.69206 110.244 5.73606C109.908 5.78006 109.59 5.82806 109.29 5.88006C108.99 5.92806 108.72 5.98606 108.48 6.05406C108.304 6.11006 108.138 6.18206 107.982 6.27006C107.83 6.35806 107.706 6.47206 107.61 6.61206C107.518 6.74806 107.472 6.91806 107.472 7.12206C107.472 7.29806 107.516 7.46606 107.604 7.62606C107.696 7.78606 107.836 7.91606 108.024 8.01606C108.216 8.11606 108.466 8.16606 108.774 8.16606Z" fill="#676767"/>
<path d="M118.134 8.88006V5.63406C118.134 5.32606 118.106 5.03006 118.05 4.74606C117.998 4.46206 117.904 4.20806 117.768 3.98406C117.636 3.75606 117.456 3.57606 117.228 3.44406C117.004 3.31206 116.72 3.24606 116.376 3.24606C116.108 3.24606 115.864 3.29206 115.644 3.38406C115.428 3.47206 115.242 3.60806 115.086 3.79206C114.93 3.97606 114.808 4.20806 114.72 4.48806C114.636 4.76406 114.594 5.09006 114.594 5.46606L113.892 5.25006C113.892 4.62206 114.004 4.08406 114.228 3.63606C114.456 3.18406 114.774 2.83806 115.182 2.59806C115.594 2.35406 116.078 2.23206 116.634 2.23206C117.054 2.23206 117.412 2.29806 117.708 2.43006C118.004 2.56206 118.25 2.73806 118.446 2.95806C118.642 3.17406 118.796 3.41806 118.908 3.69006C119.02 3.95806 119.098 4.23206 119.142 4.51206C119.19 4.78806 119.214 5.05006 119.214 5.29806V8.88006H118.134ZM113.514 8.88006V2.40006H114.474V4.13406H114.594V8.88006H113.514Z" fill="#676767"/>
<path d="M122.615 9.06006C122.131 9.06006 121.725 8.97206 121.397 8.79606C121.073 8.61606 120.827 8.38006 120.659 8.08806C120.495 7.79606 120.413 7.47606 120.413 7.12806C120.413 6.78806 120.477 6.49406 120.605 6.24606C120.737 5.99406 120.921 5.78606 121.157 5.62206C121.393 5.45406 121.675 5.32206 122.003 5.22606C122.311 5.14206 122.655 5.07006 123.035 5.01006C123.419 4.94606 123.807 4.88806 124.199 4.83606C124.591 4.78406 124.957 4.73406 125.297 4.68606L124.913 4.90806C124.925 4.33206 124.809 3.90606 124.565 3.63006C124.325 3.35406 123.909 3.21606 123.317 3.21606C122.925 3.21606 122.581 3.30606 122.285 3.48606C121.993 3.66206 121.787 3.95006 121.667 4.35006L120.653 4.04406C120.809 3.47606 121.111 3.03006 121.559 2.70606C122.007 2.38206 122.597 2.22006 123.329 2.22006C123.917 2.22006 124.421 2.32606 124.841 2.53806C125.265 2.74606 125.569 3.06206 125.753 3.48606C125.845 3.68606 125.903 3.90406 125.927 4.14006C125.951 4.37206 125.963 4.61606 125.963 4.87206V8.88006H125.015V7.32606L125.237 7.47006C124.993 7.99406 124.651 8.39006 124.211 8.65806C123.775 8.92606 123.243 9.06006 122.615 9.06006ZM122.777 8.16606C123.161 8.16606 123.493 8.09806 123.773 7.96206C124.057 7.82206 124.285 7.64006 124.457 7.41606C124.629 7.18806 124.741 6.94006 124.793 6.67206C124.853 6.47206 124.885 6.25006 124.889 6.00606C124.897 5.75806 124.901 5.56806 124.901 5.43606L125.273 5.59806C124.925 5.64606 124.583 5.69206 124.247 5.73606C123.911 5.78006 123.593 5.82806 123.293 5.88006C122.993 5.92806 122.723 5.98606 122.483 6.05406C122.307 6.11006 122.141 6.18206 121.985 6.27006C121.833 6.35806 121.709 6.47206 121.613 6.61206C121.521 6.74806 121.475 6.91806 121.475 7.12206C121.475 7.29806 121.519 7.46606 121.607 7.62606C121.699 7.78606 121.839 7.91606 122.027 8.01606C122.219 8.11606 122.469 8.16606 122.777 8.16606Z" fill="#676767"/>
<path d="M130.145 11.9401C129.805 11.9401 129.473 11.8881 129.149 11.7841C128.825 11.6801 128.527 11.5221 128.255 11.3101C127.987 11.1021 127.763 10.8381 127.583 10.5181L128.561 10.0021C128.721 10.3181 128.947 10.5481 129.239 10.6921C129.535 10.8361 129.839 10.9081 130.151 10.9081C130.563 10.9081 130.905 10.8321 131.177 10.6801C131.449 10.5321 131.649 10.3101 131.777 10.0141C131.909 9.71806 131.973 9.35006 131.969 8.91006V7.14006H132.095V2.40006H133.043V8.92206C133.043 9.09806 133.037 9.26806 133.025 9.43206C133.017 9.59606 132.997 9.75806 132.965 9.91806C132.881 10.3781 132.715 10.7561 132.467 11.0521C132.219 11.3521 131.899 11.5741 131.507 11.7181C131.115 11.8661 130.661 11.9401 130.145 11.9401ZM130.067 9.06006C129.463 9.06006 128.945 8.91006 128.513 8.61006C128.081 8.30606 127.747 7.89606 127.511 7.38006C127.279 6.86406 127.163 6.28206 127.163 5.63406C127.163 4.98606 127.279 4.40406 127.511 3.88806C127.747 3.37206 128.081 2.96606 128.513 2.67006C128.945 2.37006 129.461 2.22006 130.061 2.22006C130.673 2.22006 131.187 2.36806 131.603 2.66406C132.019 2.96006 132.333 3.36606 132.545 3.88206C132.761 4.39806 132.869 4.98206 132.869 5.63406C132.869 6.27806 132.761 6.86006 132.545 7.38006C132.333 7.89606 132.019 8.30606 131.603 8.61006C131.187 8.91006 130.675 9.06006 130.067 9.06006ZM130.199 8.08206C130.635 8.08206 130.993 7.97806 131.273 7.77006C131.553 7.55806 131.759 7.26806 131.891 6.90006C132.027 6.52806 132.095 6.10606 132.095 5.63406C132.095 5.15406 132.027 4.73206 131.891 4.36806C131.759 4.00006 131.555 3.71406 131.279 3.51006C131.003 3.30206 130.653 3.19806 130.229 3.19806C129.789 3.19806 129.425 3.30606 129.137 3.52206C128.853 3.73806 128.641 4.03006 128.501 4.39806C128.365 4.76606 128.297 5.17806 128.297 5.63406C128.297 6.09406 128.367 6.51006 128.507 6.88206C128.647 7.25006 128.857 7.54206 129.137 7.75806C129.421 7.97406 129.775 8.08206 130.199 8.08206Z" fill="#676767"/>
<path d="M137.527 9.06006C136.891 9.06006 136.335 8.92006 135.859 8.64006C135.387 8.35606 135.019 7.96206 134.755 7.45806C134.491 6.95006 134.359 6.35806 134.359 5.68206C134.359 4.97406 134.489 4.36206 134.749 3.84606C135.009 3.32606 135.371 2.92606 135.835 2.64606C136.303 2.36206 136.851 2.22006 137.479 2.22006C138.131 2.22006 138.685 2.37006 139.141 2.67006C139.601 2.97006 139.945 3.39806 140.173 3.95406C140.405 4.51006 140.505 5.17206 140.473 5.94006H139.393V5.55606C139.381 4.76006 139.219 4.16606 138.907 3.77406C138.595 3.37806 138.131 3.18006 137.515 3.18006C136.855 3.18006 136.353 3.39206 136.009 3.81606C135.665 4.24006 135.493 4.84806 135.493 5.64006C135.493 6.40406 135.665 6.99606 136.009 7.41606C136.353 7.83606 136.843 8.04606 137.479 8.04606C137.907 8.04606 138.279 7.94806 138.595 7.75206C138.911 7.55606 139.159 7.27406 139.339 6.90606L140.365 7.26006C140.113 7.83206 139.733 8.27606 139.225 8.59206C138.721 8.90406 138.155 9.06006 137.527 9.06006ZM135.133 5.94006V5.08206H139.921V5.94006H135.133Z" fill="#676767"/>
<path d="M141.809 8.88006V2.40006H142.763V3.96606L142.607 3.76206C142.683 3.56206 142.781 3.37806 142.901 3.21006C143.025 3.04206 143.163 2.90406 143.315 2.79606C143.483 2.66006 143.673 2.55606 143.885 2.48406C144.097 2.41206 144.313 2.37006 144.533 2.35806C144.753 2.34206 144.959 2.35606 145.151 2.40006V3.40206C144.927 3.34206 144.681 3.32606 144.413 3.35406C144.145 3.38206 143.897 3.48006 143.669 3.64806C143.461 3.79606 143.299 3.97606 143.183 4.18806C143.071 4.40006 142.993 4.63006 142.949 4.87806C142.905 5.12206 142.883 5.37206 142.883 5.62806V8.88006H141.809Z" fill="#676767"/>
</svg>
